PathFileType	3	(X/Y/Z)	C:\Users\koon_\Desktop\
DataRate	CameraRate	NumFrames	NumMarkers	Units	OrigDataRate	OrigDataStartFrame	OrigNumFrames
100.0	100.0	5	27	mm	100.0	631	5041	
Frame#	Time	get:LFHD			get:RFHD			get:LBHD			get:RBHD			get:C7			get:T10			get:CLAV			get:STRN			get:RBAK			get:LSHO			get:LUPA			get:LELB			get:LFRA			get:LWRA			get:LWRB			get:LFIN			get:RSHO			get:RUPA			get:RELB			get:RFRA			get:RWRA			get:RWRB			get:RFIN			get:LASI			get:RASI			get:LPSI			get:RPSI			
		X1	Y1	Z1	X2	Y2	Z2	X3	Y3	Z3	X4	Y4	Z4	X5	Y5	Z5	X6	Y6	Z6	X7	Y7	Z7	X8	Y8	Z8	X9	Y9	Z9	X10	Y10	Z10	X11	Y11	Z11	X12	Y12	Z12	X13	Y13	Z13	X14	Y14	Z14	X15	Y15	Z15	X16	Y16	Z16	X17	Y17	Z17	X18	Y18	Z18	X19	Y19	Z19	X20	Y20	Z20	X21	Y21	Z21	X22	Y22	Z22	X23	Y23	Z23	X24	Y24	Z24	X25	Y25	Z25	X26	Y26	Z26	X27	Y27	Z27	
631	6.3	48.026138	1527.5946	-23.460926	-96.987923	1503.9106	-17.937031	36.776463	1546.9235	-159.55023	-109.00999	1514.7949	-150.05946	16.476622	1326.3047	-231.60339	-4.1864948	1118.6528	-259.80038	3.1930501	1248.7064	-41.943245	-15.448091	1095.9884	2.4336276	-76.848183	1265.3846	-268.7327	169.62196	1318.5977	-152.30394	202.36171	1105.3987	-97.448921	234.29233	991.50598	-148.94676	209.64317	941.36432	-74.442436	167.53374	774.91901	-43.112896	239.60577	775.0119	-63.440079	223.69101	708.68298	-23.821705	-88.747528	1362.6597	-160.59583	-171.96504	1394.986	-165.67465	-360.42514	1486.9905	-202.18314	-217.23415	1526.4386	-230.66751	-124.03709	1573.9828	-242.24586	-167.92879	1615.4502	-200.49689	-88.277	1647.1182	-222.69749	121.53322	887.08246	-59.824505	-172.31868	904.06091	-67.533417	34.141502	921.88348	-246.8288	-53.918564	920.77228	-252.94035
632	6.31	48.657803	1527.2769	-23.356241	-96.35244	1503.9421	-17.506186	37.003639	1546.8877	-159.39658	-108.82479	1515.0181	-148.84155	16.522964	1326.3022	-231.51508	-4.0330319	1118.6598	-259.71033	2.9608145	1248.7174	-41.866386	-15.643249	1095.9485	2.5323467	-76.767235	1265.2281	-268.79874	169.5818	1318.6815	-151.98062	202.22372	1105.4833	-97.144241	234.17886	991.57733	-148.62637	209.4402	941.41626	-74.22879	167.44695	774.95557	-43.028431	239.34245	775.05438	-63.151501	223.34544	708.72479	-23.626741	-88.95858	1362.5122	-160.75601	-172.39554	1394.6837	-166.00728	-360.98065	1486.0453	-203.10938	-217.72743	1523.9021	-232.73061	-124.39175	1570.6227	-245.4001	-167.81319	1613.0133	-204.08948	-88.453049	1644.1152	-227.58307	121.5088	887.06885	-59.800877	-172.28468	904.02472	-67.605927	34.187393	921.87653	-246.76355	-53.823544	920.77045	-253.01329
633	6.32	49.312778	1526.9242	-23.244053	-95.788177	1503.9673	-17.15255	37.248966	1546.856	-159.26442	-108.62083	1515.3831	-148.20779	16.545393	1326.295	-231.42247	-3.864538	1118.6376	-259.5607	2.7405412	1248.6995	-41.764999	-15.798019	1095.9647	2.4964621	-76.670769	1265.0226	-268.78421	169.53702	1318.7743	-151.66887	202.07976	1105.5392	-96.823692	234.10741	991.62823	-148.31129	209.24213	941.44843	-73.976067	166.96526	775.02649	-42.804447	239.09149	775.08118	-62.876873	222.96255	708.74481	-23.414507	-89.169014	1362.3739	-160.89238	-172.8661	1394.3248	-166.37561	-361.71976	1484.8691	-203.77139	-218.27751	1521.2188	-234.62796	-124.74823	1567.1301	-248.3849	-167.72528	1610.4596	-207.69182	-89.124306	1640.8104	-231.68861	121.50128	887.07208	-59.721073	-172.28653	904.02734	-67.703323	34.263245	921.86658	-246.76726	-53.77536	920.7854	-253.05051
634	6.33	50.021557	1526.5718	-23.121929	-95.152863	1503.9581	-16.670181	37.498817	1546.8212	-159.11006	-108.42157	1515.7849	-147.60411	16.61059	1326.2822	-231.30006	-3.6870589	1118.5874	-259.43283	2.5543873	1248.6903	-41.757729	-16.010817	1095.9396	2.6385491	-76.5821	1264.8337	-268.87286	169.47943	1318.8375	-151.38544	201.96474	1105.6201	-96.403412	234.07587	991.73273	-147.96376	209.06862	941.49738	-73.673721	166.61197	775.06348	-42.60136	238.84987	775.13245	-62.548065	222.63251	708.75116	-23.152216	-89.38475	1362.1945	-161.09605	-173.29056	1394.0073	-166.79106	-362.32169	1483.8243	-204.63113	-218.8587	1518.469	-236.56641	-125.15259	1563.4781	-251.30099	-167.60367	1607.7227	-211.07309	-89.002068	1637.5934	-237.01891	121.48421	887.04059	-59.709427	-172.30739	904.02942	-67.774879	34.368874	921.85303	-246.76282	-53.721134	920.69116	-252.90649
635	6.34	50.642426	1526.1824	-23.032845	-94.580261	1503.9952	-16.281464	37.796925	1546.7771	-158.91306	-108.04028	1516.1172	-148.28288	16.656605	1326.2789	-231.23372	-3.4336019	1118.5537	-259.31033	2.3573294	1248.653	-41.704502	-16.202961	1095.8793	2.6387935	-76.487076	1264.5724	-268.86053	169.41411	1318.8988	-151.07114	201.8564	1105.6593	-96.084831	234.05695	991.80188	-147.55597	208.88425	941.526	-73.347763	166.41454	775.08698	-42.434635	238.61797	775.13336	-62.192753	222.30035	708.75708	-22.861889	-89.637703	1361.9781	-161.19601	-173.65985	1393.6047	-167.2103	-363.07996	1482.5424	-205.16725	-219.53236	1515.6655	-238.27127	-125.63352	1559.6477	-254.12213	-167.63828	1604.8555	-214.47899	-89.29882	1633.7513	-241.50491	121.46349	887.04755	-59.62571	-172.32825	904.00635	-67.897995	34.446613	921.82434	-246.76247	-53.60416	920.75311	-253.0966
